<?xml version="1.0" encoding="UTF-8" standalone="no"?>
<!-- Created with Inkscape (http://www.inkscape.org/) -->

<svg
   xmlns:dc="http://purl.org/dc/elements/1.1/"
   xmlns:cc="http://creativecommons.org/ns#"
   xmlns:rdf="http://www.w3.org/1999/02/22-rdf-syntax-ns#"
   xmlns:svg="http://www.w3.org/2000/svg"
   xmlns="http://www.w3.org/2000/svg"
   xmlns:sodipodi="http://sodipodi.sourceforge.net/DTD/sodipodi-0.dtd"
   xmlns:inkscape="http://www.inkscape.org/namespaces/inkscape"
   width="210mm"
   height="297mm"
   viewBox="0 0 210 297"
   version="1.1"
   id="svg8"
   inkscape:version="0.92.3 (2405546, 2018-03-11)"
   sodipodi:docname="arrow.svg"
   inkscape:export-filename="/home/dave/bitmap.png"
   inkscape:export-xdpi="49.154236"
   inkscape:export-ydpi="49.154236">
  <defs
     id="defs2" />
  <sodipodi:namedview
     id="base"
     pagecolor="#ffffff"
     bordercolor="#666666"
     borderopacity="1.0"
     inkscape:pageopacity="0.0"
     inkscape:pageshadow="2"
     inkscape:zoom="1.979899"
     inkscape:cx="346.60512"
     inkscape:cy="502.13347"
     inkscape:document-units="mm"
     inkscape:current-layer="layer1"
     showgrid="false"
     inkscape:snap-bbox="true"
     inkscape:bbox-paths="true"
     inkscape:bbox-nodes="true"
     inkscape:snap-bbox-edge-midpoints="true"
     inkscape:snap-bbox-midpoints="true"
     inkscape:object-paths="true"
     inkscape:snap-intersection-paths="true"
     inkscape:snap-smooth-nodes="true"
     inkscape:snap-midpoints="true"
     inkscape:snap-object-midpoints="true"
     inkscape:snap-center="true"
     inkscape:window-width="1366"
     inkscape:window-height="713"
     inkscape:window-x="0"
     inkscape:window-y="27"
     inkscape:window-maximized="1"
     inkscape:snap-global="false">
    <inkscape:grid
       type="xygrid"
       id="grid815" />
  </sodipodi:namedview>
  <metadata
     id="metadata5">
    <rdf:RDF>
      <cc:Work
         rdf:about="">
        <dc:format>image/svg+xml</dc:format>
        <dc:type
           rdf:resource="http://purl.org/dc/dcmitype/StillImage" />
        <dc:title></dc:title>
      </cc:Work>
    </rdf:RDF>
  </metadata>
  <g
     inkscape:label="Layer 1"
     inkscape:groupmode="layer"
     id="layer1">
    <path
       inkscape:connector-curvature="0"
       style="opacity:1;fill:#040c08;fill-opacity:0.54822338;stroke:none;stroke-width:1;stroke-linecap:round;stroke-linejoin:round;stroke-miterlimit:4;stroke-dasharray:none;stroke-dashoffset:0;stroke-opacity:1"
       d="m 86.163736,150.83903 c -2.5,0 -4.999908,2.50031 -9.999908,7.50032 -9.999998,9.99999 -9.999906,9.9996 -9.999906,14.99959 0,5.00001 2.229694,5.00022 4.999697,5.00022 h 5.000209 v 7.4998 c 0,2.77 2.229697,5.00021 4.999696,5.00021 h 10.000422 c 2.77,0 4.999696,-2.23021 4.999696,-5.00021 v -7.4998 h 5.000208 c 2.77,0 4.99969,-2.1e-4 4.99969,-5.00022 0,-4.99999 1e-4,-4.9996 -9.999898,-14.99959 -5,-5.00001 -7.499908,-7.50032 -9.999906,-7.50032 z"
       id="rect817-6"
       inkscape:export-filename="/home/dave/code/waspsurvey/static/images/arrow.png"
       inkscape:export-xdpi="49.154236"
       inkscape:export-ydpi="49.154236" />
    <path
       style="opacity:1;fill:#f8d10f;fill-opacity:1;stroke:none;stroke-width:3.77952766;stroke-linecap:round;stroke-linejoin:round;stroke-miterlimit:4;stroke-dasharray:none;stroke-dashoffset:0;stroke-opacity:1"
       d="M 321.25977 565.03906 C 311.81095 565.03906 302.36248 574.48908 283.46484 593.38672 C 245.66957 631.18199 245.66992 631.18049 245.66992 650.07812 C 245.66992 668.97576 254.09711 668.97656 264.56641 668.97656 L 283.46484 668.97656 L 283.46484 697.32227 C 283.46484 707.79156 291.89204 716.2207 302.36133 716.2207 L 340.1582 716.2207 C 350.62749 716.2207 359.05469 707.79156 359.05469 697.32227 L 359.05469 668.97656 L 377.95312 668.97656 C 388.42242 668.97656 396.84961 668.97576 396.84961 650.07812 C 396.84961 631.18049 396.84996 631.18199 359.05469 593.38672 C 340.15705 574.48908 330.70858 565.03906 321.25977 565.03906 z "
       id="rect817"
       inkscape:export-filename="/home/dave/code/waspsurvey/static/images/arrow.png"
       inkscape:export-xdpi="49.154236"
       inkscape:export-ydpi="49.154236"
       transform="scale(0.26458333)" />
  </g>
</svg>
